<mxfile host="app.diagrams.net" modified="2023-04-02T14:02:32.004Z" agent="Mozilla/5.0 (Macintosh; Intel Mac OS X 10_15_7) AppleWebKit/537.36 (KHTML, like Gecko) Chrome/111.0.0.0 Safari/537.36" version="21.1.2" etag="j3AbrcQ5JE-uwGmZU0fL" type="github">
  <diagram name="第 1 页" id="qkU7LcJhnAejnYI5GeMd">
    <mxGraphModel>
      <root>
        <mxCell id="0" />
        <mxCell id="1" parent="0" />
      </root>
    </mxGraphModel>
  </diagram>
</mxfile>
